<?xml version="1.0" encoding="iso-8859-1"?>
<!-- Generator: Adobe Illustrator 19.0.0, SVG Export Plug-In . SVG Version: 6.00 Build 0)  -->
<svg version="1.1" id="Capa_1" xmlns="http://www.w3.org/2000/svg" xmlns:xlink="http://www.w3.org/1999/xlink" x="0px" y="0px"
	 viewBox="0 0 512 512" style="enable-background:new 0 0 512 512;" xml:space="preserve">
<circle style="fill:#E7E7E8;" cx="256" cy="256" r="256"/>
<path style="fill:#BCBBC0;" d="M511.045,278.049c-0.68,0.211-1.423,0.45-2.228,0.72c0.59-2.381,1.218-4.784,1.916-7.222
	l-206.3-206.3c0,0-84.591,18.517-112.222,119.882l-28.371-29.448c0,0-101.465,153.081-7.391,242.259l113.668,113.668
	C397.604,504.677,500.257,404.474,511.045,278.049z"/>
<path style="fill:#FEA926;" d="M304.433,65.247c0,0-88.969,19.456-114.232,127.779l-26.361-37.345
	c0,0-153.616,231.76,92.423,291.073c0,0,201.945-37.345,115.539-254.094l-36.613,20.137
	C335.188,212.797,276.974,161.173,304.433,65.247z"/>
<path style="fill:#FE880C;" d="M256.26,446.75c-0.09-0.02-0.17-0.04-0.26-0.06V89.1c25.72-18.89,48.43-23.85,48.43-23.85
	c-27.46,95.92,30.76,147.55,30.76,147.55l36.61-20.14C458.21,409.41,256.26,446.75,256.26,446.75z"/>
<path style="fill:#E6021F;" d="M269.036,214.385c0,0-152.765,137.009-13.04,211.133c0,0,59.672-19.771,59.421-82.013
	C315.249,301.589,256.954,290.957,269.036,214.385z"/>
<path style="fill:#C1021A;" d="M315.42,343.5c0.25,62.25-59.42,82.02-59.42,82.02V227.37c7.73-8.23,13.04-12.99,13.04-12.99
	C256.95,290.96,315.25,301.59,315.42,343.5z"/>
<g>
</g>
<g>
</g>
<g>
</g>
<g>
</g>
<g>
</g>
<g>
</g>
<g>
</g>
<g>
</g>
<g>
</g>
<g>
</g>
<g>
</g>
<g>
</g>
<g>
</g>
<g>
</g>
<g>
</g>
</svg>
